# xmcd
#
# Track frame offsets:
#	150
#	9241
#	30795
#	49182
#	64580
#	78765
#	95622
#	111150
#	132396
#	145951
#	163420
#	177098
#
# Disc length: 2607 seconds
#
# Revision: 1
# Processed by: cddbd v1.5.2PL0 Copyright (c) Steve Scherf et al.
# Submitted via: audiograbber 1.83.01
#
DISCID=940a2d0c
DTITLE=Bone Thugs-N-Harmony - Thug Stories
DYEAR=2006
DGENRE=Hip-Hop
TTITLE0=Intro (from "Thug Stories")
TTITLE1=Call Me
TTITLE2=Thug Stories
TTITLE3=She Got Crazy
TTITLE4=Don't Stop
TTITLE5=Do It Again
TTITLE6=So Sad
TTITLE7=Fire
TTITLE8=What You See (Reload)
TTITLE9=Stand Not In Our Way
TTITLE10=Still No Surrender
TTITLE11=This Life
EXTD=MARO\n
EXTT0=
EXTT1=
EXTT2=
EXTT3=
EXTT4=
EXTT5=
EXTT6=
EXTT7=
EXTT8=
EXTT9=
EXTT10=
EXTT11=
PLAYORDER=
